<svg enable-background="new 0 0 1646.7 1033.9" viewBox="0 0 1646.7 1033.9" xmlns="http://www.w3.org/2000/svg"><g fill="#e30917"><path d="m.2 512.6c.1-18.1 4.3-35.2 11-52.1 7.3-18.4 14.7-36.7 25.2-53.3 8.7-13.8 19.3-26.6 29.5-39.5 12.2-15.4 27-28.4 41.9-41.1 16.5-14.1 32.4-29.1 49.8-42 33.5-24.8 67.5-49.2 103.5-70.4 18.8-11.1 37.8-21.9 57.2-31.9 19.5-10 39.6-19 59.6-28.2 22.1-10.2 44.3-20.5 66.7-30.1 18.7-8 37.6-15.7 56.7-22.5 22.1-7.9 44.7-14.7 67-22.2 12.2-4.1 24.2-9.3 36.6-12.9 22.4-6.5 45.1-12.1 67.6-18.1 8.5-2.3 16.9-4.7 25.5-6.7 18.4-4.3 36.8-8.5 55.3-12.3 19.7-4 39.4-8 59.2-11.2 18.8-3.1 37.8-5.3 56.8-7.8 15.5-2 31-4.1 46.5-5.4 17.1-1.4 34.2-2.1 51.3-2.7 26.1-.8 52.3-1.5 78.4-1.9 18.4-.3 36.9-.7 55.3.1 25 1.1 50.2 2 75 5.2 30.4 3.9 60.7 8.5 90.1 17.8 22.7 7.2 45.9 12.6 68.5 20 15.2 5 29.9 11.6 44.5 18.2 13.4 6 26.7 12.4 39.5 19.6 11 6.3 21 14.4 31.8 21.2 21.9 13.7 40.7 31.4 60.1 48.1 8.2 7 14.4 16.3 21.5 24.7 6.6 7.9 13.3 15.7 19.6 23.8 6.9 8.9 14.3 17.6 20 27.2 10.4 17.5 20.6 35.3 29.4 53.7 11.2 23.3 20 47.7 25.2 73.2 3.8 18.3 9.3 36.4 12.1 54.8 3.4 22.3 5 44.9 6.9 67.4 1.1 13.4 1.7 26.9 1.8 40.4.2 13.5-.2 27-.9 40.4-.7 15.8-1.2 31.6-3.2 47.3-2 15.6-5.5 31-9 46.4-4.8 21-9.9 41.9-15.4 62.8-1.8 6.7-4.8 13-7.8 19.4-7 15.2-13.6 30.7-21.8 45.3-9.7 17.5-18.9 35.4-31.9 51-18.1 21.9-35.9 44.1-56.9 63.2-15.4 14-31.7 27.2-48.8 39.1-18.4 12.7-37.6 24.3-57.5 34.5-16.9 8.7-35 15.2-52.9 21.6-22.3 7.9-44.9 14.9-67.5 21.9-22.2 6.9-44.8 11.9-68.1 13.9-8.6.7-16.9 3.6-25.4 4.8-14.8 2.2-29.6 5.1-44.5 5.4-47.9 1.1-95.9 1.4-143.8 1.3-18.1 0-36.2-1.6-54.3-2.8-13.6-.9-27.1-2.1-40.6-3.5-7.6-.8-15.1-2.5-22.6-3.6-14.5-2.1-29-3.7-43.4-6-13.6-2.2-27-5.3-40.5-7.8-11.1-2-22.4-3.1-33.4-5.5-25.9-5.7-51.8-11.6-77.6-18.2-23.2-6-46.2-12.8-69.2-19.7-22.5-6.7-44.9-13.7-67.2-21.2-21-7.1-41.9-14.6-62.6-22.8-23.5-9.3-46.9-19.2-70-29.5-29.6-13.2-59-26.8-88.2-40.8-10.2-4.9-19.7-11.5-29.5-17.3-21.8-12.9-43.7-25.7-65.5-38.6-7.3-4.3-14.7-8.4-21.6-13.2-12.6-8.7-25.1-17.3-37.1-26.8-14.7-11.6-29.1-23.5-43.1-36-16.8-15-33.7-30.1-49.1-46.5-12.3-13.1-22.8-28-33.5-42.6-6.8-9.3-13.1-19.2-18.6-29.3-3.6-6.6-5-14.5-8.4-21.2-9-18-12-37.5-14.9-57-.8-3.8-.3-7.7-.3-11.5zm700.4-426.8c-10.8 3-21.6 5.8-32.4 8.9-13.8 4-27.6 8.2-41.4 12.4-18.2 5.6-36.5 11.1-54.5 17.3-12.5 4.3-24.5 9.9-37 14.5-27.5 10.2-55.4 19.3-82.6 30.3-25.9 10.5-51.3 22.4-76.5 34.6-19.1 9.2-37.7 19.4-56.3 29.7-14.7 8.1-28.7 17.2-43.3 25.4-30.3 17-60.2 34.4-87.1 56.5-18.6 15.3-38.2 29.5-55.8 45.8-14.4 13.4-26.9 28.9-39.5 44-10.5 12.6-19.4 26.5-26.1 41.7-6.5 14.9-13.7 29.4-19.6 44.5-4.4 11.2-5.8 23.2-2.8 35 2.9 11.3 6.2 22.6 10.2 33.6 6.4 17.6 14.6 34.6 25.5 49.8 9.7 13.6 20.4 26.6 31.1 39.4 6.7 8 13.7 15.9 21.6 22.7 17.9 15.5 36.4 30.4 54.8 45.3 6.9 5.6 14.1 11.1 21.6 15.9 13.9 9 28.1 17.4 42.2 26.2 7.3 4.6 14 9.9 21.5 14.1 26.2 14.5 52.5 28.9 78.9 43 14.5 7.7 29.1 15.1 44 22.1 12.7 6 25.8 11.2 38.6 17 9.2 4.1 18.1 9 27.5 12.6 25.8 9.9 51.8 19.3 77.8 28.7 19.1 6.9 38.3 13.7 57.6 20 12.9 4.2 26.2 7.3 39.3 11.2 21.9 6.6 43.5 14.2 65.6 19.9 20.6 5.4 41.8 9 62.7 13.3 16.4 3.4 32.7 7.1 49.2 10 20.1 3.5 40.5 5.5 60.5 9.3 25.9 5 52.1 5.8 78.3 7.7 11.9.9 23.9 1.5 35.9 2.1 20.7 1 41.4 2.3 62.1 2.6 15.1.2 30.3-.9 45.4-1.6 19.9-.9 39.8-.7 59.5-5.1 31.3-6.9 62.9-12.8 94.2-20 18.1-4.2 36.1-8.9 53.4-15.4 27.2-10.2 55.6-18 80.4-34.2 9.7-6.3 20.1-11.5 29.7-17.9 15.7-10.5 31.4-21.1 46.5-32.6 10.6-8.1 21-17 29.8-26.9 13.9-15.7 27.7-31.7 38-50.4 7.3-13.3 16.7-25.6 23-39.4 9.3-20.1 17.5-40.8 24.6-61.8 6.9-20.2 12.4-41 17.2-61.8 2.9-12.5 3.3-25.7 4.6-38.6 2.4-24.6 6.1-49.1 3.6-74.1-2.4-24-2.9-48.1-5.4-72.1-1.9-18.4-5.2-36.8-8.9-55-3-14.9-7-29.7-11.7-44.2-6.7-21.2-15.1-41.7-25.7-61.3-10.5-19.3-22.6-37.5-35.6-55.2-7.9-10.8-16.2-21.4-24.9-31.7-7.8-9.2-14.7-19.1-25.2-25.9-8.5-5.4-15.9-12.6-24.1-18.5-8.1-5.8-16.4-11.3-25-16.2-12.8-7.3-25.9-14.2-39.1-20.9-17-8.6-33.6-18.7-51.5-24.7-27.7-9.2-55.4-18.7-84-25.5-27.9-6.6-56-11.2-84.4-14.2-19.7-2.1-39.4-4-59.1-5.7-13.6-1.2-27.2-2.3-40.8-3-28.5-1.5-56.8 1.8-85.1 4-7 .6-14 1.3-21.4 1.9 3.5 2.6 6.4 5.1 9.6 7 8.4 5.3 17 10.3 25.5 15.5 4.1 2.5 7.9 5.2 8.4 10.9.8 8.9-3.3 15.5-10.3 19.6-7.1 4.2-15 2.2-21.8-1.9-8.6-5.2-16.9-11.1-25.2-16.7-5.6-3.8-8.1-3.6-13 1.2-4.6 4.3-8.9 8.9-13.7 13-5.4 4.6-11 9.1-17 12.9-2.9 1.8-7.2 3.5-10.1 2.7-15-4-20.1-19.6-11.6-30.3 3.4-4.3 7.2-8.3 11.3-11.9 6.9-6 14.2-11.6 22.5-18.3-2.6 0-3.9-.1-5.1 0-11.6 1.4-23.1 2.5-34.6 4.2-17.7 2.6-35.5 5.3-53.1 8.6-14.3 2.7-28.5 6.2-42.6 9.7-7.5 1.9-16.5.6-20.3 10.5-1.8 4.8-5.7 8.9-9 13-5.4 6.8-10.4 14.4-20.2 15.6-3.8.5-7.5 1.7-11.2 1.9-1.7.1-4-.8-5.2-2-7.9-6.8-8.5-14.4-2.9-24.3z"/><path d="m366.5 488.6c-.3 8.5-.5 16.1-.7 23.7-.3 10.3-.1 20.6-.8 30.9-.4 6.7-3.4 12.6-9.6 15.9-11.7 6.2-26.6-1-29-15.6-2-12.2-2.3-24.9-1.6-37.2.9-15.7 3.4-31.4 5.3-47 .9-7.7 2.8-15 7.7-21.3 8.5-11.2 18.4-11 29.2-3.9 8.4 5.5 15.5 13 22.8 19.9 5.6 5.2 10.7 11 15.9 16.5 3.5 3.7 7 3.3 10.3.1 8.2-8 16.2-16.2 24.5-24.1 5.2-4.9 10.8-9.3 16.3-13.8 10.3-8.5 25.5-3.6 32.2 4.5 7.3 8.7 10.1 19.4 12.7 30 5 20.8 10 41.6 13.7 62.6 1.7 9.3 1.3 19.2.1 28.7-1.1 8.8-8.1 13.4-17.1 13.7-13.8.4-18.6-3.1-21.8-16.8-4.4-18.7-8.4-37.5-12.7-56.2-.8-3.6-2.5-6.9-3.8-10.4-.6-.2-1.3-.3-1.9-.5-5.8 6-11.6 12.1-17.4 18.1-7 7.2-14 14.3-25 14.7-7.4.3-13.5-2.7-19-7.4-9.1-7.8-18-15.8-27-23.6-.4-.5-1.1-.6-3.3-1.5z"/><path d="m766.1 516.3c-.5 7.1-1 13.1-1.3 19.1-.2 5.5-.4 11 0 16.5.9 13.8-11.7 20.4-22.3 19-12.2-1.6-17.6-7.7-17.4-20.1.3-16.9 1.2-33.8 1.8-50.8.2-5.7-.3-11.4.2-17 .8-9 1.6-18.1 3.3-27 1.5-7.5 8.8-14.1 14.7-13.6 9.7.9 18.2 4.2 24.5 12.3 10.7 13.7 21.4 27.4 32.7 40.6 6.2 7.3 13.5 13.6 20.5 20.2 1 1 3 1.6 4.3 1.3.8-.2 1.5-2.4 1.5-3.8.2-11.3.2-22.6.4-33.9.3-20 .4-39.9 1.3-59.9.4-7.6 1.4-15.6 9.3-20.4 7.6-4.6 14.9-3 22.2.2 6.7 2.9 9.9 8.5 9.8 15.4 0 15-.7 29.9-.7 44.9 0 7.8 1.2 15.6 1.4 23.4.1 6.4-.3 12.9-.7 19.4-.6 10.6-1.1 21.2-1.9 31.8-.6 8.2-1.3 16.3-5.6 23.9-10.1 18-34.9 21.5-49.3 6.7-10.8-11.1-21.9-21.8-32.7-32.8-3.8-3.9-7.4-8-11.3-11.9-1-1.1-2.5-2-4.7-3.5z"/><path d="m646 821.9c-1.2 3.9-2.1 6.5-2.9 9-4.4 14.6-8.4 29.3-13.4 43.7-2.4 7-6.1 13.9-14.5 15.7-7.8 1.7-15.3-.2-21.8-4.5-4.7-3.1-5.9-8.7-4.6-13.9 2.7-11.1 5.9-22.1 9.1-33 5.2-17.3 10.4-34.6 16.1-51.7 2.9-8.9 6.4-17.7 10.3-26.3 3.6-7.9 10.4-11.8 19.2-11.7 8.6.2 14.5 4.1 18.6 11.8 8.9 17 14.3 35.2 20.6 53.2 2.5 7.2 5.5 14.2 8.2 21.3.9 2.5 1.3 5.1 2.3 7.5.7 1.7 2.1 3.1 3.8 5.4 6.4-20.4 12.2-39.2 18-58 2.8-9.1 6.1-17.9 13-24.8 5-4.9 11.1-6.2 17.4-3.3 7.7 3.4 14.5 8.2 13.8 17.9-.5 6-1.5 12.2-3.4 17.9-7.6 23.1-15.4 46.2-23.7 69.1-4.3 11.8-8.3 24-14.9 34.6-11.7 18.9-30.7 14.8-41-2.4-4.3-7.2-8-14.9-11-22.7-6.2-16.6-11.7-33.4-17.5-50.1-.2-.9-.7-2-1.7-4.7z"/><path d="m305.1 664.8c-8.6 13.1-16.8 25.7-25.1 38.3-8 12.2-18.2 14.5-30.7 6.9-7-4.3-9.5-15.9-4.7-25.2 7.2-14.2 14.9-28.1 22.5-42.1 4.3-7.9 8.7-15.6 13.2-23.4 6.3-10.6 15.4-17 27.9-18.1 8-.7 15 2.2 18.7 9 5.7 10.4 10.2 21.5 14.9 32.4 7.8 18.4 15.2 37 23.2 55.4 1.4 3.3 4.5 5.9 6.9 8.8 2-2.7 4.2-5.2 5.8-8.1 5.7-10.1 10.8-20.6 16.8-30.5 8-13.1 24.2-18.1 36.9-5.5 4.3 4.2 6.1 9.1 3.8 14.4-5 11.3-10.4 22.5-16 33.5-7.9 15.3-16 30.5-24.2 45.7-3.7 6.9-8.3 13.5-15.9 16.5-8 3.1-16.1 1.8-22.1-4.2-4.2-4.1-6.8-9.9-9.7-15.2-4-7.4-7.3-15.2-11.4-22.6-9.2-16.7-18.3-33.4-22.8-52.2-1.3-4.9-2.7-10.2-8-13.8z"/><path d="m562.2 158.3c11.9-.5 16.2 3.6 19.2 19.4 2.1 10.8 5.7 20.7 10.7 30.3.7 1.3 1.8 3.1 2.8 3.2 9.3.8 11.8 7.8 13.6 15 1.4 5.5 2 11.1-2.4 16-.8.9-1 2.8-.6 4 2.2 6.6 4.6 13.1 6.9 19.7 4 11.2 4.3 22-4.4 31.1-8.3 8.7-25.9 5.5-30.7-5.4-4.2-9.5-8-19.2-12.1-28.8-2.3-5.4-4.9-6.6-10.1-4.4-9.4 4.2-18.6 8.7-27.9 13-3.4 1.6-7 2.9-10.4 4.5-3.1 1.5-4.3 4-3.3 7.4 2.6 8.9 4.9 17.9 8 26.6 3.6 10 2.4 18.7-7.7 23.5-3 1.4-5.9 3.2-9 4.2-7 2.4-11.3.7-15.1-5.7-1.8-3.1-3.3-6.5-4.5-10-11-31.1-20.8-62.6-35-92.4-3.7-7.7-5.9-15.7-2.2-24 1.2-2.6 3.5-4.8 5.6-6.9 1.1-1.1 2.9-1.7 4.4-2.3 12.4-5.3 20.4-2.3 25.8 10 3.4 7.7 6.3 15.6 9.2 23.5 1.5 4.1 3.6 5.9 8.2 4.3 14-5.1 28.1-9.9 42-15 6.7-2.4 8.5-6.5 6.3-13.4-1-3.1-2.8-6-3.8-9.1-2.1-6.6-4.7-13.2-5.5-19.9-1.1-9.6 7.9-17.8 18.9-18.4 1.2-.1 2.4 0 3.1 0z"/><path d="m726.9 280.1c-19.2 0-23.5-3.2-27.4-16.8-6.5-22.9-12.8-46-19.6-68.8-4.4-14.9-7.5-30-7.9-45.4-.3-13.8 8.6-24.9 22-29.1 15.9-5 31.8-10 47.6-15.4 10.7-3.6 17.6-.4 21.1 10.5.4 1.3.5 2.7 1.1 3.8 5.6 10.3.2 17.5-8.4 21.3-8.7 3.9-18 6.7-27 10-2.2.8-4.5 1.3-6.7 2.1-9 3.2-12.2 12.4-7 20.6.6 1 2.9 1.6 4.2 1.3 4.3-1 8.6-2.4 12.8-3.8 8.6-2.9 17.1-6.2 25.8-8.8 8.4-2.6 15.7 1.3 18.6 9.7 1.4 4.1 2.1 8.4 3.4 12.5 3.8 12-1.3 17.3-13.1 21.1-9.6 3.1-19.6 4.8-29.4 7.5-7.7 2.1-9.3 5.7-6.5 13.4.7 1.9 1.6 3.7 2.1 5.6 1.5 4.8 4.3 6.1 8.9 4.6 15.2-4.9 30.5-9.8 45.8-14.3 8.3-2.4 15.9 1.9 18.7 10.7 1.7 5.4 2.4 11.4 2.5 17.1.2 6.6-4.1 11.6-10.4 13.5-6.9 2-13.9 3.7-20.9 5.6-7.9 2.2-15.7 5-23.7 6.7-10.2 2.3-20.9 3.8-26.6 4.8z"/><path d="m1044.3 791.5c11.8-.6 18 3.7 21.7 14.7 3.4 10.3-3.6 21.5-14.3 22.9-15.8 2-31.6 4.1-47.4 5.9-4.2.5-6.1 2-5.5 6.3.4 3.1.5 6.3.9 9.4.7 5.7 1.8 6 7.8 5.2 11.3-1.5 22.7-3 34.2-3.5 12.5-.6 19.3 6.4 20.2 18.9.2 2.6.6 5.3.3 7.8-.7 4.9-3.4 8.5-8.4 9.3-9.9 1.7-20 3.1-30 4.5-2.8.4-5.7.1-8.5.5-8.9 1.1-9.8 2.4-8.4 11.2 1.8 11 2.5 11.5 13.8 10.6 5-.4 9.9-.8 14.9-.9 10.2-.1 20 6.6 23.8 15.9 5 12.1-4.1 26.5-17.1 26.8-15.5.3-30.9.5-46.4.1-6.4-.2-12.9-1.6-19-3.7-8.1-2.9-11-10.2-11.7-18.2-2.4-26.5-4.4-53-7.1-79.5-1.2-11.6-.2-22.9 1.5-34.2 2-13.4 12.5-21.9 26.1-23.4 17.5-2 34.8-4.5 52.3-6.7 1.9-.2 4.1.1 6.3.1z"/><path d="m1442.2 216.2c12.4.1 22.3 6 30.4 14.7 11.3 12.1 21.9 24.8 32.7 37.4 2 2.4 3.9 5 5.3 7.8 2.7 5.5 3.6 11.7-.4 16.6-4.5 5.5-9.8 12.7-18 10-6-2-12.1-6.6-16-11.7-8.1-10.3-17.9-18.6-27.6-27.2-.4-.3-.8-.7-1.3-.8-3.1-.4-7.3-2-9-.7-3.1 2.5-1.7 6.7.4 9.9 5.6 8.4 11.1 16.9 16.8 25.2 10.7 15.5.5 23.5-11.5 27.5-8.3 2.8-15.3 1.2-20.7-6.8-5.8-8.5-12.6-16.3-18.8-24.4-2.2-2.9-4.7-3.7-7.6-1.4-2.9 2.2-6 4.4-8 7.3-1.1 1.5-1 5.2.1 6.7 4.5 5.9 9.6 11.3 14.5 17 4.8 5.5 9.9 10.8 14.1 16.7 5.8 8.1 4 16.3-4.1 22.1-2.3 1.6-4.4 3.4-6.6 5.2-5.3 4.4-14.8 3.4-19.2-1-11.8-11.9-24.7-22.9-35.6-35.5-5.9-6.8-9.6-15.8-12.7-24.4-3.5-9.6 1.1-18.1 8.1-24.6 7.6-7 16.1-13.2 24.4-19.6 15.2-11.8 30.5-23.4 45.5-35.3 8.9-7.2 16.3-10.7 24.8-10.7z"/><path d="m1459 719.7c3.5 2.6 6.6 5.1 9.9 7.3 3.5 2.4 6.6 1.8 9-1.8 7.1-10.7 14.1-21.4 21.3-31.9 4.5-6.5 13.3-8.6 20.2-4.8 3.9 2.2 7.7 4.7 11.1 7.6 5.2 4.4 5.9 13.2 1 21.1-9.9 16.1-19.8 32.2-30.5 47.7-3.5 5-9.3 8.8-14.7 12.2-6.2 3.8-13.1 2.6-19-1-14.8-9.2-29.4-18.6-43.8-28.3-13.6-9.2-26.7-19-40.3-28.1-9.2-6.1-15-14.6-17.9-24.8-1-3.4-.1-8.2 1.7-11.4 9.8-17.1 20.2-34 30.4-50.9.9-1.4 2-2.6 3.1-3.9 7.5-8.2 12.2-8.9 21.6-2.9 1.8 1.2 3.6 2.4 5.5 3.5 9.8 5.3 13.2 15 8 24.8s-11.1 19.3-16.9 28.7c-3.6 5.7-3.4 9.1 1.1 11.2 2.8 1.3 4.5.5 6.1-2.1 3.5-5.6 7.1-11.2 11.3-16.3 3.4-4.3 12-5.9 16.9-3.3 5.2 2.8 10.3 6 15.1 9.6 5.1 3.9 6.4 8.3 3.6 14.1-3.7 7.5-8.4 14.6-12.6 21.8-.3.3-.6.8-1.2 1.9z"/><path d="m1074.3 87.3c6 .6 15.8 1.9 25.7 2.6 10.1.7 20.2.9 30.2 1.3 17.1.7 34.3 1.2 51.4 2.1 7.3.4 14.6 1 21.8 2 5.6.8 10 3.5 11.4 9.6 1 4.5 2.9 9.2 2.4 13.5-1.3 11-2.6 11.8-14.3 15.5-10.3 3.3-20.7 2-31.1.9-5.9-.6-11.9-1.2-17.9-1.3-6.2-.1-8.2 1.6-9.1 7.6-3.8 24.2-7.5 48.5-10.9 72.8-1.1 7.8-2.7 15.1-10 19.6-2.3 1.4-5.2 2.9-7.7 2.8-8.4-.4-20.4-6.9-22.3-18.6-2.1-12.8.1-25.1 2.5-37.5 2.6-13 4.2-26.1 6.7-39.2.9-4.9-1.7-6.5-5.5-6.8-9.9-.9-19.8-1.2-29.6-2.4-6.5-.8-13.2-1.9-19.2-4.3-11.4-4.4-13.2-23.5-4-32.4 7.1-6.7 9.7-7.7 29.5-7.8z"/><path d="m1194.4 419.7c13.6-.8 27.2-1.9 40.8-2.3 4.3-.1 9 1 12.9 2.9 11.2 5.5 11.6 20.4 7.6 27.9-3.2 5.9-9.5 7.4-15.8 7.8-10.1.5-20.3.7-30.4 1.3-9.8.6-13.3 4.8-12.7 13.9.2 3 1.5 4.1 4.4 4 7-.1 14 .1 21-.2 4.8-.2 7.9 2.4 9.2 6.3 1.9 6.1 3.5 12.5 1.6 19.1-1.9 6.5-6.1 10.3-12.8 10.5-6.7.3-13.5.6-20.2.6-3.9 0-6 1.3-6.1 5.3 0 .8-.3 1.6-.4 2.5-1.4 8.7.3 10.9 8.8 11 7.6.1 15.3-.1 22.9-.2 8.4-.1 17.2 8 17.7 16.3.2 3 .3 6 0 9-.7 8-5.2 12.1-13.1 12.9-12.1 1.1-24.1 3.3-36.2 3.5-9.1.1-18.4-1.6-27.3-3.6-8.5-2-12.2-9.4-12.9-17.2-1-10.5-.6-21.2-.3-31.8.8-21.4 1.7-42.8 3.1-64.2.6-9.2.9-18.6 6.8-26.7 4.3-5.9 10-8.6 16.9-8.9 4.8-.2 9.6 0 14.5 0z"/><path d="m1505 529.6c-6.3-3.3-11-6.3-16.1-8.5-10.8-4.5-20.9-10.3-29.5-18.1-12.1-11-20.1-24.5-19.7-41.3.3-10.6 6.1-19.1 14.1-26 13.3-11.5 28.8-18.6 46.4-18.9 19-.3 36.7 4.1 48.2 21.3 2.4 3.6 4.3 7.9 5.2 12.2 1.8 8.5-3.5 13.7-9.9 17.9-6.6 4.3-12.7 1.3-18.5-2.1-4.3-2.5-8-6-12.5-8-11.2-5.1-21.3-1-30.7 5.3-3.7 2.5-3.9 6.6-.3 9.8 3.7 3.2 8.1 5.7 12.3 8.2 15.8 9.1 32.3 17.4 43.7 32.3 4 5.2 7.7 11 9.7 17.1 2.8 8.8-1.4 16.3-8.3 21.9-10.7 8.7-23.7 12.4-37 14.3-10.7 1.5-21.6 2.4-32.3 1.9-11.6-.6-22.4-4.6-29.1-15.4-4-6.6.8-19 8.6-20.7 4.6-1 9.5-.7 14.2-.7 11.8 0 23.6.3 35.5.3 1.5-.2 3-1.5 6-2.8z"/><path d="m397.9 269.7c0 5.3-4.9 10.4-11.9 13.1-10 3.9-19.8 8.3-29.9 12.1-4.8 1.9-6.1 4.9-3.9 9.2 3.9 7.5 7.8 14.9 12.1 22.2 7.3 12.4 15.1 24.6 22.5 37 3.1 5.2 2.5 12.8-1.7 17.2-5.8 6-13 9.6-21.5 9.4-6.9-.2-12.2-3.8-15.3-10.3-5.4-11.4-10.3-23-16.4-34-4.9-9-10.9-17.4-16.9-25.7-4.1-5.7-8.9-6.4-15.9-3.4-5.9 2.5-11.6 5.5-17.7 7.5-10 3.3-15 1.3-20.8-7.4-2.2-3.3-4.5-6.5-6.5-10-4.1-7.1-2.4-12 4.6-16.1 22.8-13.2 47.3-21.9 72.4-29.6 13.4-4.1 26.1-10.3 39-16 8.7-3.8 15.2-3.6 19.6 1.6 4 5 8.3 16.8 8.2 23.2z"/><path d="m899.8 838c-3.8-.6-10.7-1.4-17.5-2.7-4.3-.8-6.5.4-7.4 4.8-4.3 19.9-8.9 39.8-13.1 59.7-1.8 8.3-2.8 16.7-4.5 25-1 4.8-2.3 9.7-4.4 14.2-1.2 2.6-3.7 5.3-6.3 6.3-6 2.3-12.9 3-18-1.3-5.8-4.9-8.2-12.1-7.1-19.8 2-14.8 4.2-29.6 6.7-44.3 1.4-8.5 3.7-16.8 5.4-25.2 1.1-5.4 1.8-10.8 2.5-16.2.5-3.8-1.2-6.4-5.2-7.2-6.2-1.3-12.3-2.5-18.5-3.8-11.2-2.3-15.5-8.1-14.4-19.4 1.3-14.2 10.6-21.9 24.8-20.2 24.9 3 49.7 6.3 74.5 9.5 5.2.7 10.5 1.4 15.7 2.5 9.3 2 12.9 13.4 11.6 21.6-1.8 10.7-9.8 16.7-24.8 16.5z"/><path d="m1064.2 483.8c.9-11.7 1.4-23.5 2.7-35.2 1.3-11.2 14.9-19.5 26.9-16.2 7.3 2 12.5 9.6 12.7 20.1.3 11.9-.3 23.9-.4 35.8-.1 13.5.2 27-.5 40.4-.4 9.1-1.6 18.2-3.6 27-2.8 12.4-17.1 17-28.8 10.4-11.6-6.5-11.7-17.3-11-28.2 1.1-18 2.6-36.1 4-54.1-.7.1-1.3.1-2 0z"/><path d="m1079.7 416c-11.4-.4-24.9-14-24.2-24.4.9-13.4 12.8-22.8 25.1-23.2 11.6-.4 23.3 13 22.9 25.1-.2 12.7-11.2 23-23.8 22.5z"/><path d="m1400.4 818c-9.9-3-20.2-5.1-30.5-6.5-10.5-1.5-13.9-6.4-9.1-15.6.8-1.5 1.5-3 2.3-4.4 13.7-25.9-3.1-51.1-22.7-58.8-20-8-40.3-8.1-58.8 4.6-6.4 4.4-12.7 10-17 16.4-5.6 8.4-7.4 18-3.8 28.5 4.9 13.8 7.5 28.6 13.3 42 9.8 22.6 20.5 45 32.4 66.6 7.5 13.7 21.2 15 32.8 3.6 3.8-3.8 4.6-8.5 3.1-13.3-1.5-4.7-3.6-9.3-5.6-13.8-2.9-6.4-6.1-12.8-9.2-19.1.3-.5.5-.9.8-1.4 3.4.6 7 .7 10.2 1.9 8 3 15.7 7.1 23.9 9.5 12 3.5 24.6 4.2 36.9 1.9 12.1-2.3 12.7-2.6 15.2-13.8 3-13.9-2.1-24.6-14.2-28.3zm-79.6-38.4c-3.7 4-8.4 7-12.6 10.3-.3-.3-.6-.7-1-1-.8-.2-1.6-.3-2.4-.6-3.8-1.9-4.7-13.5-1-15.5 3-1.6 6.3-3.1 9.6-3.4 2.2-.2 5.6 1 6.7 2.7 1.3 1.8 1.9 6.2.7 7.5z"/><path d="m301.4 549.8c-4.3-12.2-8.5-24.4-13.4-36.3-3.5-8.6-8.2-16.6-12.2-25-9.2-19.5-17.4-39.4-27.5-58.4-8.8-16.6-34.4-16.8-44.7-1.2-4.6 6.9-8.9 14-13.5 20.9-14.2 21.1-28.7 42.1-42.7 63.4-8 12.1-16.6 24-19 39-1.3 7.8 2 13.7 7.1 18.7 5 4.8 11.2 7.1 18.2 4.5 8.2-3.1 12.8-9.7 16-17.4 2.7-6.2 5-12.6 7.4-19 2.2-5.6 6.3-8.4 11.3-7.7 2.6.4 5.2.8 7.9.8 7.8-.2 15.6-.9 23.4-.9 7.1 0 14.3 1 21.4.8 4.8-.1 8.2 1.5 10.3 5.5 3.4 6.3 6.3 12.7 9.5 19.1 1.9 3.7 3.5 7.5 5.8 10.9 4.4 6.4 12.6 7.6 23 3.6 9-3.4 12.3-7.4 12.4-15.6-.1-1.4 0-3.7-.7-5.7zm-68.3-56.5c-6.8-.5-13.7-.8-20.5-1.5-.6-.1-1.8-2.8-1.4-3.5 2.7-4.4 5.5-8.6 8.8-12.6.7-.8 4-.9 4.5-.2 3.6 5.3 6.9 11 10.2 16.5-.5.5-1.1.9-1.6 1.3z"/><path d="m691.2 545.8c-7.7-24.6-16.9-48.7-25.5-73.1-2.4-6.9-5.7-13.5-7.5-20.5-4.8-18.1-14.5-32.2-31.5-40.6-5.7-2.8-11.4-2.4-16.8 1.6-13 9.7-19.2 23.9-25 38.2-5.7 13.8-10.4 28-16.2 41.7-6.6 15.7-14.3 30.9-21 46.6-6.3 14.9-.5 25.7 15.1 29.8 5.8 1.5 10.7.9 15.3-3.2 8-7.2 12.9-16.4 16.8-26.1 1.5-3.6 3.6-4.9 6.9-5 11.6-.4 23.3-.8 34.9-1 5.9-.1 7.8 1.5 9.4 7.3 2.3 8.6 4.6 17.3 7 25.9 2.2 7.7 8.9 14.9 18.4 14.4 3-.8 6.2-1.2 8.8-2.6 12.3-6.9 15.5-18.9 10.9-33.4zm-68.4-50.7c-.8 0-1.7.2-2.5.1-7.4-.6-8.3-1.8-6.5-8.9 1.3-5.1 2.6-10.3 4.1-15.4.5-1.7 1.6-3.3 2.4-5 .5 0 .9.1 1.4.1 2.2 7.5 4.8 15 6.5 22.6 1.2 5.7.2 6.4-5.4 6.5z"/><path d="m1335 142.1c-8.2-6.6-17.5-10.6-26.9-14.7-19.6-8.6-30.7-4.9-43.1 8.4-11.4 12.2-21.8 25.5-31.4 39.2-11.9 16.8-22.4 34.4-33.6 51.6-4.5 6.9-5.2 13.4-.9 17.2 5.3 4.7 10.9 9.3 17.1 12.8 9 5.1 14.2 3 19-6.3.5-1 1.1-2.1 1.5-3.1 2.8-6.7 5.3-13.6 8.6-20.1 1.3-2.5 4.4-4.1 6.7-6 1.4 2.2 3.3 4.3 4 6.7 5.4 18.8 10.6 37.6 15.9 56.4 2.7 9.7 5.9 12.1 15.8 11.8.8 0 1.7.1 2.5 0 13.2-1.1 24.3-7.5 18.9-24.2-4.7-14.3-7.9-29.1-11.6-43.7-2.8-11.1.5-15.7 11.7-18.2 12.8-2.8 23.9-8.7 32-19.5 13.8-18.8 11.7-33.8-6.2-48.3zm-37.2 29.4c-4.1 2.5-8.6 4.6-13.3 6-3.3 1-5.2-1.2-3.3-4.6 2.9-5.1 5.3-10.9 14.3-11.1 1.1.7 4 1.8 5.1 3.9.6 1.1-1.2 4.8-2.8 5.8z"/><path d="m1023.2 487.5c-4-21-15.2-37.6-32.5-50.1-9.7-7-19.8-13.4-32.2-14.7-7.6-.8-15.1-2.2-22.7-2.5-14.1-.5-26 12.3-25.9 26.5.2 17.3 0 34.6 0 51.9v51.9c0 10 4.4 15.9 14.2 16.3 16 .7 32.1 1.1 48.1-.1 16.2-1.2 29.1-10.4 39-22.7 13.6-16.5 15.9-36.2 12-56.5zm-41.5 24.3c-1.1 6.1-5.6 9.9-11.5 11.1-5.1 1.1-10.4 1.3-15.7 1.4-1.2 0-3.5-2.2-3.5-3.5-.3-10.8-.2-21.6-.2-32.4-.2 0-.4 0-.7 0 0-5.8 0-11.6 0-17.4 0-6 1.8-7.2 7.6-5.8 15.9 3.8 22.5 15.5 24.9 30.1 1.1 5.3.1 11.1-.9 16.5z"/><path d="m1392.5 532.7c-1.8-1.5-3.4-3.1-5.1-4.7-7-6.3-14-12.5-21.7-19.4 4.4-2.4 7.8-4.2 11.1-6.1 13.8-7.8 20.8-24.7 17-40.1-3.5-14-8.8-26.6-23.3-32.7-15.1-6.4-30.7-7.3-46.6-3.7-4.5 1-10.1 1.6-13.1 4.6-10 9.9-16.3 22.1-16.6 36.7-.3 14.7-.3 29.5 0 44.2.2 11.1.7 22.3 1.9 33.3 1.7 14.7 6.2 20.3 20.6 19.4 10.9-.7 18.7-5.9 19.3-18.7.1-2.8.8-5.7 1.2-8.5.5-.3 1.1-.6 1.6-.9 2.2 2.6 4.3 5.4 6.7 7.8 7.5 7.5 14.8 15.3 22.8 22.2 2.8 2.4 7.6 4.1 11.2 3.8 9.9-.9 16.1-7.2 19.2-16.4 2.9-8.2.5-15.1-6.2-20.8zm-40.9-62.6c-.6 3.6-3.3 4.7-6.5 4.7-5.2 0-7.1-1.8-7-6.9-.6-3.4 1.7-4 4.8-3.9 4.8.1 9.2 3 8.7 6.1z"/><path d="m556.7 720c-.3-2.3-1.5-4.8-3.1-6.5-14.1-14.5-29.2-12.3-43.9-.7-13.9 11-26.9 23.2-39.5 35.7-14.8 14.7-28.9 30.2-43.1 45.5-3.5 3.8-6 8.4-5.5 14 .9 9.5 6.3 15.8 14.8 18.8 7.6 2.6 14.2-.7 19.6-6.3 3.9-4.1 7.8-8.2 11.7-12.2 2.6-2.7 5.3-4.7 9.6-3.2 10.9 3.7 22 7.1 32.9 10.8 3.6 1.2 4.8 3.9 4.6 7.8-.3 5.6-.2 11.3.4 16.9.9 8.6 7.5 14.6 16.9 15.3 9.5.7 17.4-2.1 19.7-11.1 1.6-6.3 2.1-13 2.4-19.6 1.5-29 2.7-58 4.2-88.9-.5-4.4-.8-10.4-1.7-16.3zm-37.5 49.2c-.9 6.5-1.7 6.9-7.9 4.7-5.9-2.1-6.4-4-2.7-8.8 1.8-2.3 3.5-4.8 5.6-6.9 1.2-1.3 3-2 4.6-3 .7 1.6 1.5 3.2 1.8 4-.5 4.1-.9 7-1.4 10z"/><path d="m1002.4 196.4c-9.4-19.8-18.5-39.6-28.2-59.2-4.9-9.9-10.6-19.4-16.2-29-4.4-7.5-11-10.7-19.7-9.3-.8.1-1.6.2-1.7.3-16.5.7-24.6 4.7-31.9 16.5-4.4 7.2-8.5 14.6-12.1 22.3-4.8 10.2-9.3 20.6-13.2 31.1-6.7 18.2-13 36.5-19.1 54.9-1.6 4.8-2.8 10.2 1 14.8 6 7 13.7 10.7 22.9 9.3 8.5-1.3 12.1-7.9 14.5-15.3 3.4-10.4 6.5-20.8 10.1-31.1.8-2.2 2.8-5.1 4.8-5.6 9.6-2.4 19.5-3.4 29-6.1 7.7-2.2 10.2 2.2 13.3 7.3 5.4 9.1 11 18.1 16.3 27.2 4.2 7.3 10.7 9.2 18.3 7.6 4.2-.9 8.2-2.5 12.1-4.4 1.5-.7 2.8-2.9 3.2-4.6 2.6-9.4.6-18.2-3.4-26.7zm-61-47.5c-2 2.7-8.2 2.6-12.6 3-2.9.3-3.8-1.9-2.3-4.3 2.4-3.8 5.2-7.4 7.8-11.1 1.6.8 1.9.9 2.1 1.1 2.6 3.5 7.9 7.3 5 11.3z"/><path d="m1246.1 890.7c-7.1-4.5-14.3-8.9-21.6-13.2-7.5-4.5-15.4-8.4-22.6-13.2-5.4-3.6-5.2-5.9-1-10.7 3.6-4.1 7.2-8.2 10.8-12.3 4.5-5.1 6.4-11.2 6.2-17.9-.4-11.4-3.7-21.9-10.4-31.2-9.7-13.4-22.7-21.6-39.6-20.9-17.5.7-33.2 7.3-47.1 17.8-6.9 5.2-10.6 12.2-9.8 21.1.4 4.5.8 8.9 1.1 13.4.8 15 2.9 29.8 7.4 44.1 4.4 13.9 9.6 27.5 13.9 41.4 3.2 10.4 5.2 21.2 8.7 31.5 5 15 21.2 18.4 32.8 7.5 3.5-3.3 5.6-7 4.9-11.9-.8-6.1-1.3-12.2-2.6-18.2-1.9-8.5-4.3-16.8-6.9-26.5 2.9 1.2 4.8 1.6 6.3 2.6 11.1 6.6 22.1 13.4 33.2 19.9 6.9 4 13.8 8.1 21.1 11.1 3 1.2 7.6.5 10.7-1 7.6-3.7 8.4-11.8 10-19 1.3-5.8-.2-11.1-5.5-14.4zm-73.7-64.2v1c-.1 0-.2 0-.2 0-.2.5-.3 1-.5 1.4-.2.1-.3.2-.5.2-.4.5-.8 1-1.2 1.4-.2.1-.5.2-.7.2v.2c-.2 0-.3 0-.5 0v.5c-.2.1-.5.2-.7.2v.2c-.2 0-.3 0-.5 0-.1.2-.2.3-.2.5-.2 0-.3 0-.5 0-.1.2-.2.3-.2.5-.5.2-1 .3-1.4.5-.1-.1 0-.4-.5-.2v.2c-.2 0-.3 0-.5 0v.2c-.2 0-.5 0-.7 0v.2c-.2 0-.5 0-.7 0v.2c-.2 0-.3 0-.5 0v.2c-.5.1-1 .2-1.4.2l-.2-.2v.2c-1 .1-2.1.2-3.1.2-.3 0 .1.3-.2.2 0-.1 0-.2 0-.2-1-.1-1.2-.6-1.9-1 0-1.7-.4-3-.7-4.3.1-.5.2-1 .2-1.4-.1 0-.2 0-.2 0-.1-.6-.2-1.3-.2-1.9-.1 0-.2 0-.2 0 0-.2 0-.5 0-.7-.1 0-.2 0-.2 0-.2-.6.3-1.2.2-1.4-.1 0-.2 0-.2 0 0-.2 0-.5 0-.7-.1 0-.2 0-.2 0 0-.3 0-.6 0-1-.1 0-.2 0-.2 0 0-.2 0-.5 0-.7-.1 0-.2 0-.2 0 0-.2 0-.3 0-.5-.1 0-.2 0-.2 0-.1-.7-.2-1.4-.2-2.2 1-1 2.1-1.9 3.1-2.9.7-.2 1.4-.3 2.2-.5 0-.1 0-.2 0-.2h.5c0-.1 0-.2 0-.2h.7c0-.1 0-.2 0-.2h.7c0-.1 0-.2 0-.2.2.1.3.2.5.2.5-.2 1.3-.7 2.2-.5v.2c.5.1.7-.3 1-.2v.2h.2c0-.1 0-.2 0-.2h1.9v.2c1.2.1 2.4.2 3.6.2v.5h.5v.2c.5.4 1 .8 1.4 1.2v.5c.2.2.5.3.7.5v.5c.2.1.3.2.5.2.1.9.2 1.8.2 2.6h.2v.7h.2c0 2.1-.9 4-1.2 5z"/></g></svg>